<svg width="300" height="80" viewBox="0 0 300 80" xmlns="http://www.w3.org/2000/svg">
  <g transform="translate(10, 10)">
    <circle cx="30" cy="30" r="28" fill="none" stroke="#16A085" stroke-width="2.5"/>
    <circle cx="15" cy="18" r="3" fill="#16A085"/>
    <circle cx="30" cy="15" r="3" fill="#16A085"/>
    <circle cx="45" cy="18" r="3" fill="#16A085"/>
    <circle cx="19" cy="33" r="3" fill="#F39C12"/>
    <circle cx="30" cy="37" r="4" fill="#F39C12"/>
    <circle cx="41" cy="33" r="3" fill="#F39C12"/>
    <circle cx="15" cy="45" r="3" fill="#16A085"/>
    <circle cx="30" cy="48" r="3" fill="#16A085"/>
    <circle cx="45" cy="45" r="3" fill="#16A085"/>
    <line x1="15" y1="18" x2="19" y2="33" stroke="#1C2833" stroke-width="1.2" opacity="0.3"/>
    <line x1="30" y1="15" x2="30" y2="37" stroke="#1C2833" stroke-width="1.2" opacity="0.3"/>
    <line x1="45" y1="18" x2="41" y2="33" stroke="#1C2833" stroke-width="1.2" opacity="0.3"/>
    <line x1="19" y1="33" x2="15" y2="45" stroke="#1C2833" stroke-width="1.2" opacity="0.3"/>
    <line x1="30" y1="37" x2="30" y2="48" stroke="#1C2833" stroke-width="1.2" opacity="0.3"/>
    <line x1="41" y1="33" x2="45" y2="45" stroke="#1C2833" stroke-width="1.2" opacity="0.3"/>
    <line x1="19" y1="33" x2="30" y2="37" stroke="#1C2833" stroke-width="1.2" opacity="0.3"/>
    <line x1="30" y1="37" x2="41" y2="33" stroke="#1C2833" stroke-width="1.2" opacity="0.3"/>
  </g>
  <text x="80" y="40" font-family="Arial, sans-serif" font-size="24" font-weight="700" fill="#1C2833">CONTRA</text>
  <text x="178" y="40" font-family="Arial, sans-serif" font-size="24" font-weight="300" fill="#16A085">.MATE</text>
</svg>
