<svg width="400" height="120" viewBox="0 0 400 120" xmlns="http://www.w3.org/2000/svg">
  <!-- AI Brain/Circuit Icon -->
  <g transform="translate(20, 20)">
    <!-- Outer circle -->
    <circle cx="40" cy="40" r="38" fill="none" stroke="#16A085" stroke-width="3"/>
    
    <!-- Neural network nodes -->
    <circle cx="20" cy="25" r="4" fill="#16A085"/>
    <circle cx="40" cy="20" r="4" fill="#16A085"/>
    <circle cx="60" cy="25" r="4" fill="#16A085"/>
    <circle cx="25" cy="45" r="4" fill="#F39C12"/>
    <circle cx="40" cy="50" r="5" fill="#F39C12"/>
    <circle cx="55" cy="45" r="4" fill="#F39C12"/>
    <circle cx="20" cy="60" r="4" fill="#16A085"/>
    <circle cx="40" cy="65" r="4" fill="#16A085"/>
    <circle cx="60" cy="60" r="4" fill="#16A085"/>
    
    <!-- Connecting lines (neural network) -->
    <line x1="20" y1="25" x2="25" y2="45" stroke="#1C2833" stroke-width="1.5" opacity="0.3"/>
    <line x1="40" y1="20" x2="40" y2="50" stroke="#1C2833" stroke-width="1.5" opacity="0.3"/>
    <line x1="60" y1="25" x2="55" y2="45" stroke="#1C2833" stroke-width="1.5" opacity="0.3"/>
    <line x1="25" y1="45" x2="20" y2="60" stroke="#1C2833" stroke-width="1.5" opacity="0.3"/>
    <line x1="40" y1="50" x2="40" y2="65" stroke="#1C2833" stroke-width="1.5" opacity="0.3"/>
    <line x1="55" y1="45" x2="60" y2="60" stroke="#1C2833" stroke-width="1.5" opacity="0.3"/>
    <line x1="25" y1="45" x2="40" y2="50" stroke="#1C2833" stroke-width="1.5" opacity="0.3"/>
    <line x1="40" y1="50" x2="55" y2="45" stroke="#1C2833" stroke-width="1.5" opacity="0.3"/>
    
    <!-- Document corner fold accent -->
    <path d="M 60 10 L 70 10 L 70 20 Z" fill="#F39C12" opacity="0.7"/>
  </g>
  
  <!-- Text -->
  <text x="110" y="50" font-family="Arial, sans-serif" font-size="32" font-weight="700" fill="#1C2833">CONTRA</text>
  <text x="110" y="80" font-family="Arial, sans-serif" font-size="32" font-weight="300" fill="#16A085">.MATE</text>
  
  <!-- Tagline -->
  <text x="110" y="100" font-family="Arial, sans-serif" font-size="11" fill="#7F8C8D" letter-spacing="1">AI CONTRACT ASSISTANT</text>
</svg>
